<svg width="18" height="18" viewBox="0 0 18 18" fill="none" xmlns="http://www.w3.org/2000/svg">
<path d="M13.141 13.6135L12.8244 13.2972L12.4751 13.5768C11.2765 14.5363 9.7623 15.1127 8.1163 15.1127C4.26074 15.1127 1.11792 11.9645 1.11792 8.10781C1.11792 4.25166 4.26017 1.10942 8.1163 1.10942C11.9726 1.10942 15.1163 4.25181 15.1163 8.10781C15.1163 9.75588 14.5391 11.2727 13.5787 12.4733L13.2992 12.8227L13.6156 13.1392L16.7341 16.2576C16.7928 16.3206 16.825 16.4038 16.824 16.49C16.823 16.5776 16.7877 16.6613 16.7257 16.7232C16.6637 16.7851 16.5799 16.8203 16.4923 16.8212C16.406 16.822 16.3228 16.7896 16.2598 16.7308L13.141 13.6135ZM14.448 8.10781C14.448 4.60013 11.624 1.77611 8.1163 1.77611C4.60862 1.77611 1.78459 4.60013 1.78459 8.10781C1.78459 11.6147 4.60789 14.446 8.1163 14.446C11.6247 14.446 14.448 11.6147 14.448 8.10781Z" fill="#443297" stroke="black"/>
</svg>
